<svg width="278" height="89" viewBox="0 0 278 89" fill="none" xmlns="http://www.w3.org/2000/svg">
<path d="M57.7532 67.3961H60.8034C61.8421 67.3961 62.7136 67.7442 63.4178 68.4404C64.122 69.1093 64.476 69.9581 64.476 70.9868V74.4093H67.6935V77.4759H54.1855V70.9868C54.1855 69.9855 54.5318 69.1367 55.2243 68.4404C55.9129 67.7442 56.7572 67.3961 57.7532 67.3961ZM60.8034 70.5448H57.7532C57.4614 70.5448 57.3174 70.6895 57.3174 70.9829V74.4054H61.3208V70.9829C61.3208 70.6934 61.1496 70.5448 60.8034 70.5448Z" fill="url(#paint0_radial_6736_8859)"/>
<path d="M75.1825 67.3961V74.0495C75.2525 74.2881 75.3965 74.4054 75.6182 74.4054H78.4V77.472H75.6182C74.8713 77.472 74.1982 77.2725 73.6068 76.8657C72.9571 77.2686 72.2568 77.472 71.5098 77.472H66.8606V74.4054H71.5098C71.7433 74.4054 71.9183 74.2881 72.0273 74.0495V73.9673V67.3961H75.1825ZM71.5721 78.8801C72.6225 78.8801 73.1477 79.4081 73.1477 80.4642C73.1477 81.5633 72.6225 82.1109 71.5721 82.1109C70.4788 82.1109 69.9342 81.5633 69.9342 80.4642C69.9342 79.4081 70.4788 78.8801 71.5721 78.8801ZM75.5365 78.8801C76.587 78.8801 77.1122 79.4081 77.1122 80.4642C77.1122 81.5633 76.587 82.1109 75.5365 82.1109C74.4433 82.1109 73.8986 81.5633 73.8986 80.4642C73.8947 79.4081 74.4433 78.8801 75.5365 78.8801ZM57.0681 63.5355C58.1186 63.5355 58.6438 64.0635 58.6438 65.1196C58.6438 66.2187 58.1186 66.7663 57.0681 66.7663C55.9749 66.7663 55.4302 66.2187 55.4302 65.1196C55.4263 64.0674 55.9749 63.5355 57.0681 63.5355ZM61.0287 63.5355C62.0791 63.5355 62.6044 64.0635 62.6044 65.1196C62.6044 66.2187 62.0791 66.7663 61.0287 66.7663C59.9355 66.7663 59.3908 66.2187 59.3908 65.1196C59.3908 64.0674 59.9355 63.5355 61.0287 63.5355Z" fill="url(#paint1_radial_6736_8859)"/>
<path d="M83.8351 62.2212V73.7991C83.8351 74.8435 83.4616 75.7196 82.7146 76.4276C81.9948 77.1238 81.1506 77.472 80.1818 77.472H77.5674V74.4054H80.1818C80.5281 74.4054 80.6993 74.2333 80.6993 73.8852V62.2252H83.8351V62.2212Z" fill="url(#paint2_radial_6736_8859)"/>
<path d="M87.1539 67.4782H91.8654C92.8341 67.4782 93.6706 67.8342 94.3748 68.5421C95.079 69.2501 95.433 70.0989 95.433 71.0885V74.4054H98.5649V77.472H85.4927V74.4054H91.8615C92.2078 74.4054 92.3789 74.2333 92.3789 73.8852V71.0885C92.3789 70.7286 92.2039 70.5448 91.8615 70.5448H87.15V67.4782H87.1539Z" fill="url(#paint3_radial_6736_8859)"/>
<path d="M106.058 67.3961V74.0494C106.128 74.288 106.272 74.4054 106.494 74.4054H109.276V77.472H106.494C105.747 77.472 105.074 77.2725 104.483 76.8657C103.833 77.2686 103.133 77.472 102.386 77.472H97.7363V74.4054H102.386C102.619 74.4054 102.794 74.288 102.903 74.0494V73.9673V67.3961H106.058ZM102.448 78.8801C103.498 78.8801 104.023 79.4081 104.023 80.4642C104.023 81.5633 103.498 82.1109 102.448 82.1109C101.355 82.1109 100.81 81.5633 100.81 80.4642C100.806 79.4081 101.355 78.8801 102.448 78.8801ZM106.408 78.8801C107.459 78.8801 107.984 79.4081 107.984 80.4642C107.984 81.5633 107.459 82.1109 106.408 82.1109C105.315 82.1109 104.77 81.5633 104.77 80.4642C104.77 79.4081 105.315 78.8801 106.408 78.8801Z" fill="url(#paint4_radial_6736_8859)"/>
<path d="M119.691 67.4782H127.18C128.285 67.4782 129.184 67.8889 129.876 68.7103C130.456 69.4066 130.748 70.2827 130.748 71.3388V73.8852C130.748 75.0117 130.456 75.8917 129.876 76.5254C129.297 77.1591 128.452 77.4759 127.344 77.4759H108.439V74.4093H111.657V68.5461H114.707V74.4093H116.368V71.0729C116.368 68.6751 117.477 67.4782 119.691 67.4782ZM127.099 70.5448H119.94C119.648 70.5448 119.504 70.7208 119.504 71.065V74.4015H127.348C127.639 74.3311 127.783 74.159 127.783 73.8813V71.3349C127.849 70.8108 127.624 70.5448 127.099 70.5448Z" fill="url(#paint5_radial_6736_8859)"/>
<g clip-path="url(#paint6_diamond_6736_8859_clip_path)" data-figma-skip-parse="true"><g transform="matrix(0.0149339 0.0192062 -0.00337735 0.0437977 12.7062 20.0004)"><rect x="0" y="0" width="1189.62" height="1249.29" fill="url(#paint6_diamond_6736_8859)" opacity="1" shape-rendering="crispEdges"/><rect x="0" y="0" width="1189.62" height="1249.29" transform="scale(1 -1)" fill="url(#paint6_diamond_6736_8859)" opacity="1" shape-rendering="crispEdges"/><rect x="0" y="0" width="1189.62" height="1249.29" transform="scale(-1 1)" fill="url(#paint6_diamond_6736_8859)" opacity="1" shape-rendering="crispEdges"/><rect x="0" y="0" width="1189.62" height="1249.29" transform="scale(-1)" fill="url(#paint6_diamond_6736_8859)" opacity="1" shape-rendering="crispEdges"/></g></g><path d="M24.0518 35.3119H19.6678C19.1488 35.3119 18.8871 35.6354 18.8871 36.2823V38.003C18.8871 38.6283 19.1488 38.9388 19.6678 38.9388H21.4137C23.2239 38.9388 24.7853 39.5642 26.0979 40.8062C27.3376 42.0267 27.9553 43.5491 27.9553 45.3647C27.9553 48.0816 26.8143 50.0223 24.5365 51.1954C23.7172 51.5921 22.8764 51.7948 22.0099 51.7948H5.31482C1.77161 51.1479 0 49.0046 0 45.3647V38.9388H5.61509V45.369C5.61509 45.99 5.93681 46.3048 6.58025 46.3048H21.5638C22.0829 46.1798 22.3445 45.8693 22.3445 45.369C22.3445 44.748 22.0357 44.4332 21.4137 44.4332H19.0716C17.1627 44.4332 15.7171 43.8682 14.7391 42.734C13.761 41.5997 13.272 40.0256 13.272 38.0073V36.2866C13.272 34.5184 13.9026 32.996 15.168 31.7281C16.4335 30.4559 17.9305 29.8219 19.6678 29.8219H24.0561V35.3119H24.0518ZM10.8913 55.7193C12.7744 55.7193 13.7181 56.6681 13.7181 58.5614C13.7181 60.5279 12.7744 61.5155 10.8913 61.5155C8.93095 61.5155 7.95292 60.5322 7.95292 58.5614C7.95721 56.6681 8.93524 55.7193 10.8913 55.7193ZM17.9949 55.7193C19.878 55.7193 20.8217 56.6681 20.8217 58.5614C20.8217 60.5279 19.878 61.5155 17.9949 61.5155C16.0388 61.5155 15.0565 60.5322 15.0565 58.5614C15.0565 56.6681 16.0345 55.7193 17.9949 55.7193Z" data-figma-gradient-fill="{&#34;type&#34;:&#34;GRADIENT_DIAMOND&#34;,&#34;stops&#34;:[{&#34;color&#34;:{&#34;r&#34;:1.0,&#34;g&#34;:0.0,&#34;b&#34;:0.0,&#34;a&#34;:1.0},&#34;position&#34;:0.0},{&#34;color&#34;:{&#34;r&#34;:0.58823531866073608,&#34;g&#34;:0.10588235408067703,&#34;b&#34;:0.11764705926179886,&#34;a&#34;:1.0},&#34;position&#34;:1.0}],&#34;stopsVar&#34;:[],&#34;transform&#34;:{&#34;m00&#34;:29.867856979370117,&#34;m01&#34;:-6.7547087669372559,&#34;m02&#34;:1.1496433019638062,&#34;m10&#34;:38.412464141845703,&#34;m11&#34;:87.595497131347656,&#34;m12&#34;:-43.003543853759766},&#34;opacity&#34;:1.0,&#34;blendMode&#34;:&#34;NORMAL&#34;,&#34;visible&#34;:true}"/>
<g clip-path="url(#paint7_diamond_6736_8859_clip_path)" data-figma-skip-parse="true"><g transform="matrix(0.00833889 0.0154246 -0.00188587 0.0351741 38.0271 25.8545)"><rect x="0" y="0" width="1238.95" height="1275.51" fill="url(#paint7_diamond_6736_8859)" opacity="1" shape-rendering="crispEdges"/><rect x="0" y="0" width="1238.95" height="1275.51" transform="scale(1 -1)" fill="url(#paint7_diamond_6736_8859)" opacity="1" shape-rendering="crispEdges"/><rect x="0" y="0" width="1238.95" height="1275.51" transform="scale(-1 1)" fill="url(#paint7_diamond_6736_8859)" opacity="1" shape-rendering="crispEdges"/><rect x="0" y="0" width="1238.95" height="1275.51" transform="scale(-1)" fill="url(#paint7_diamond_6736_8859)" opacity="1" shape-rendering="crispEdges"/></g></g><path d="M40.7811 46.3005H46.542V51.7948H40.7811V52.7307C40.7811 54.4989 40.1505 56.0212 38.885 57.2891C37.6196 58.5614 36.1097 59.1953 34.3509 59.1953H30.9321V53.5156H34.3509C34.87 53.5156 35.1316 53.2525 35.1316 52.7307V33.7421H40.7811V46.3005Z" data-figma-gradient-fill="{&#34;type&#34;:&#34;GRADIENT_DIAMOND&#34;,&#34;stops&#34;:[{&#34;color&#34;:{&#34;r&#34;:1.0,&#34;g&#34;:0.0,&#34;b&#34;:0.0,&#34;a&#34;:1.0},&#34;position&#34;:0.0},{&#34;color&#34;:{&#34;r&#34;:0.58823531866073608,&#34;g&#34;:0.10588235408067703,&#34;b&#34;:0.11764705926179886,&#34;a&#34;:1.0},&#34;position&#34;:1.0}],&#34;stopsVar&#34;:[],&#34;transform&#34;:{&#34;m00&#34;:16.677783966064453,&#34;m01&#34;:-3.7717328071594238,&#34;m02&#34;:31.574073791503906,&#34;m10&#34;:30.849140167236328,&#34;m11&#34;:70.348152160644531,&#34;m12&#34;:-24.744184494018555},&#34;opacity&#34;:1.0,&#34;blendMode&#34;:&#34;NORMAL&#34;,&#34;visible&#34;:true}"/>
<g clip-path="url(#paint8_diamond_6736_8859_clip_path)" data-figma-skip-parse="true"><g transform="matrix(0.0246065 0.0108484 -0.00556484 0.0247387 65.994 28.3455)"><rect x="0" y="0" width="1169.29" height="1254.79" fill="url(#paint8_diamond_6736_8859)" opacity="1" shape-rendering="crispEdges"/><rect x="0" y="0" width="1169.29" height="1254.79" transform="scale(1 -1)" fill="url(#paint8_diamond_6736_8859)" opacity="1" shape-rendering="crispEdges"/><rect x="0" y="0" width="1169.29" height="1254.79" transform="scale(-1 1)" fill="url(#paint8_diamond_6736_8859)" opacity="1" shape-rendering="crispEdges"/><rect x="0" y="0" width="1169.29" height="1254.79" transform="scale(-1)" fill="url(#paint8_diamond_6736_8859)" opacity="1" shape-rendering="crispEdges"/></g></g><path d="M65.5023 33.893H78.9245C80.9063 33.893 82.5192 34.6305 83.7589 36.0968C84.8013 37.3432 85.3203 38.913 85.3203 40.8062V46.3005H91.1199V51.7948H45.0581V46.3005H51.1193V35.7992H56.5843V46.3005H59.557V40.3189C59.557 36.0364 61.5388 33.893 65.5023 33.893ZM78.7744 39.3874H66.1329C65.4895 39.3874 65.1678 39.6979 65.1678 40.3232V46.3048H79.2205C79.7395 46.1798 80.0012 45.8693 80.0012 45.369V40.8062C80.1256 39.8617 79.7181 39.3874 78.7744 39.3874Z" data-figma-gradient-fill="{&#34;type&#34;:&#34;GRADIENT_DIAMOND&#34;,&#34;stops&#34;:[{&#34;color&#34;:{&#34;r&#34;:1.0,&#34;g&#34;:0.0,&#34;b&#34;:0.0,&#34;a&#34;:1.0},&#34;position&#34;:0.0},{&#34;color&#34;:{&#34;r&#34;:0.58823531866073608,&#34;g&#34;:0.10588235408067703,&#34;b&#34;:0.11764705926179886,&#34;a&#34;:1.0},&#34;position&#34;:1.0}],&#34;stopsVar&#34;:[],&#34;transform&#34;:{&#34;m00&#34;:49.212989807128906,&#34;m01&#34;:-11.129671096801758,&#34;m02&#34;:46.952362060546875,&#34;m10&#34;:21.696847915649414,&#34;m11&#34;:49.477329254150391,&#34;m12&#34;:-7.2415952682495117},&#34;opacity&#34;:1.0,&#34;blendMode&#34;:&#34;NORMAL&#34;,&#34;visible&#34;:true}"/>
<g clip-path="url(#paint9_diamond_6736_8859_clip_path)" data-figma-skip-parse="true"><g transform="matrix(0.00599694 0.0165562 -0.00135623 0.0377546 118.326 16.0079)"><rect x="0" y="0" width="1281.16" height="1292.43" fill="url(#paint9_diamond_6736_8859)" opacity="1" shape-rendering="crispEdges"/><rect x="0" y="0" width="1281.16" height="1292.43" transform="scale(1 -1)" fill="url(#paint9_diamond_6736_8859)" opacity="1" shape-rendering="crispEdges"/><rect x="0" y="0" width="1281.16" height="1292.43" transform="scale(-1 1)" fill="url(#paint9_diamond_6736_8859)" opacity="1" shape-rendering="crispEdges"/><rect x="0" y="0" width="1281.16" height="1292.43" transform="scale(-1)" fill="url(#paint9_diamond_6736_8859)" opacity="1" shape-rendering="crispEdges"/></g></g><path d="M124.45 24.4742V45.218C124.45 47.0854 123.781 48.6552 122.442 49.9275C121.156 51.1738 119.641 51.7948 117.908 51.7948H113.224V46.3005H117.908C118.526 46.3005 118.839 45.99 118.839 45.3647V24.4742H124.45Z" data-figma-gradient-fill="{&#34;type&#34;:&#34;GRADIENT_DIAMOND&#34;,&#34;stops&#34;:[{&#34;color&#34;:{&#34;r&#34;:1.0,&#34;g&#34;:0.0,&#34;b&#34;:0.0,&#34;a&#34;:1.0},&#34;position&#34;:0.0},{&#34;color&#34;:{&#34;r&#34;:0.58823531866073608,&#34;g&#34;:0.10588235408067703,&#34;b&#34;:0.11764705926179886,&#34;a&#34;:1.0},&#34;position&#34;:1.0}],&#34;stopsVar&#34;:[],&#34;transform&#34;:{&#34;m00&#34;:11.993883132934570,&#34;m01&#34;:-2.7124540805816650,&#34;m02&#34;:113.68577575683594,&#34;m10&#34;:33.112384796142578,&#34;m11&#34;:75.509239196777344,&#34;m12&#34;:-38.302906036376953},&#34;opacity&#34;:1.0,&#34;blendMode&#34;:&#34;NORMAL&#34;,&#34;visible&#34;:true}"/>
<g clip-path="url(#paint10_diamond_6736_8859_clip_path)" data-figma-skip-parse="true"><g transform="matrix(0.00299962 0.0165562 -0.000678374 0.0377546 129.975 16.0079)"><rect x="0" y="0" width="1432.75" height="1358.9" fill="url(#paint10_diamond_6736_8859)" opacity="1" shape-rendering="crispEdges"/><rect x="0" y="0" width="1432.75" height="1358.9" transform="scale(1 -1)" fill="url(#paint10_diamond_6736_8859)" opacity="1" shape-rendering="crispEdges"/><rect x="0" y="0" width="1432.75" height="1358.9" transform="scale(-1 1)" fill="url(#paint10_diamond_6736_8859)" opacity="1" shape-rendering="crispEdges"/><rect x="0" y="0" width="1432.75" height="1358.9" transform="scale(-1)" fill="url(#paint10_diamond_6736_8859)" opacity="1" shape-rendering="crispEdges"/></g></g><path d="M133.037 51.7948H127.422V24.4742H133.037V51.7948Z" data-figma-gradient-fill="{&#34;type&#34;:&#34;GRADIENT_DIAMOND&#34;,&#34;stops&#34;:[{&#34;color&#34;:{&#34;r&#34;:1.0,&#34;g&#34;:0.0,&#34;b&#34;:0.0,&#34;a&#34;:1.0},&#34;position&#34;:0.0},{&#34;color&#34;:{&#34;r&#34;:0.58823531866073608,&#34;g&#34;:0.10588235408067703,&#34;b&#34;:0.11764705926179886,&#34;a&#34;:1.0},&#34;position&#34;:1.0}],&#34;stopsVar&#34;:[],&#34;transform&#34;:{&#34;m00&#34;:5.9992489814758301,&#34;m01&#34;:-1.3567488193511963,&#34;m02&#34;:127.65328216552734,&#34;m10&#34;:33.112384796142578,&#34;m11&#34;:75.509239196777344,&#34;m12&#34;:-38.302906036376953},&#34;opacity&#34;:1.0,&#34;blendMode&#34;:&#34;NORMAL&#34;,&#34;visible&#34;:true}"/>
<g clip-path="url(#paint11_diamond_6736_8859_clip_path)" data-figma-skip-parse="true"><g transform="matrix(0.0112973 0.0129209 -0.00255491 0.0294647 100.761 25.4054)"><rect x="0" y="0" width="1211.51" height="1267.99" fill="url(#paint11_diamond_6736_8859)" opacity="1" shape-rendering="crispEdges"/><rect x="0" y="0" width="1211.51" height="1267.99" transform="scale(1 -1)" fill="url(#paint11_diamond_6736_8859)" opacity="1" shape-rendering="crispEdges"/><rect x="0" y="0" width="1211.51" height="1267.99" transform="scale(-1 1)" fill="url(#paint11_diamond_6736_8859)" opacity="1" shape-rendering="crispEdges"/><rect x="0" y="0" width="1211.51" height="1267.99" transform="scale(-1)" fill="url(#paint11_diamond_6736_8859)" opacity="1" shape-rendering="crispEdges"/></g></g><path fill-rule="evenodd" clip-rule="evenodd" d="M101.723 53.3344C100.261 53.3344 98.9179 53.0541 97.6138 52.4762C96.3484 51.907 95.2288 51.1393 94.2808 50.1862C93.3371 49.2504 92.5607 48.1118 91.9859 46.8051C91.4282 45.4854 91.1494 44.0881 91.1494 42.6434C91.1494 41.1987 91.4325 39.8143 91.9859 38.5291C92.5564 37.2353 93.3285 36.1011 94.2851 35.1567C95.2288 34.2079 96.3484 33.4402 97.6138 32.8666C98.9136 32.2887 100.261 32.0127 101.723 32.0127C103.182 32.0127 104.567 32.3017 105.846 32.8666C107.132 33.4316 108.235 34.1777 109.222 35.1567C110.165 36.1011 110.92 37.2353 111.474 38.5291C112.018 39.7841 112.297 41.1685 112.297 42.6434V52.8687C112.297 53.1274 112.091 53.3344 111.834 53.3344H101.723ZM101.779 36.3858C99.9989 36.3858 98.4761 36.9938 97.2535 38.1971C96.0052 39.4219 95.4004 40.858 95.4004 42.5916C95.4004 44.4245 96.0052 45.9081 97.2535 47.1329C98.4632 48.3792 99.986 49.0089 101.779 49.0089H107.947V42.5916C107.947 40.8752 107.36 39.4391 106.146 38.1928C104.958 36.9938 103.486 36.3858 101.779 36.3858Z" data-figma-gradient-fill="{&#34;type&#34;:&#34;GRADIENT_DIAMOND&#34;,&#34;stops&#34;:[{&#34;color&#34;:{&#34;r&#34;:1.0,&#34;g&#34;:0.0,&#34;b&#34;:0.0,&#34;a&#34;:1.0},&#34;position&#34;:0.0},{&#34;color&#34;:{&#34;r&#34;:0.58823531866073608,&#34;g&#34;:0.10588235408067703,&#34;b&#34;:0.11764705926179886,&#34;a&#34;:1.0},&#34;position&#34;:1.0}],&#34;stopsVar&#34;:[],&#34;transform&#34;:{&#34;m00&#34;:22.594532012939453,&#34;m01&#34;:-5.1098237037658691,&#34;m02&#34;:92.019096374511719,&#34;m10&#34;:25.841772079467773,&#34;m11&#34;:58.929386138916016,&#34;m12&#34;:-16.980188369750977},&#34;opacity&#34;:1.0,&#34;blendMode&#34;:&#34;NORMAL&#34;,&#34;visible&#34;:true}"/>
<g clip-path="url(#paint12_diamond_6736_8859_clip_path)" data-figma-skip-parse="true"><g transform="matrix(0.0108 0.0123564 -0.00244245 0.0281774 100.807 26.1641)"><rect x="0" y="0" width="1215.54" height="1271.03" fill="url(#paint12_diamond_6736_8859)" opacity="1" shape-rendering="crispEdges"/><rect x="0" y="0" width="1215.54" height="1271.03" transform="scale(1 -1)" fill="url(#paint12_diamond_6736_8859)" opacity="1" shape-rendering="crispEdges"/><rect x="0" y="0" width="1215.54" height="1271.03" transform="scale(-1 1)" fill="url(#paint12_diamond_6736_8859)" opacity="1" shape-rendering="crispEdges"/><rect x="0" y="0" width="1215.54" height="1271.03" transform="scale(-1)" fill="url(#paint12_diamond_6736_8859)" opacity="1" shape-rendering="crispEdges"/></g></g><path fill-rule="evenodd" clip-rule="evenodd" d="M101.724 32.4828C100.33 32.4828 99.0301 32.7545 97.8033 33.2979C96.5893 33.8413 95.5212 34.5745 94.6118 35.493C93.6853 36.4116 92.956 37.4855 92.4155 38.7189C91.8922 39.9394 91.6177 41.259 91.6177 42.6477C91.6177 44.0536 91.8879 45.3733 92.4155 46.6197C92.9603 47.8531 93.6853 48.9442 94.6118 49.8628C95.5255 50.7814 96.5936 51.5102 97.8033 52.0536C99.0301 52.6013 100.33 52.873 101.724 52.873H111.835V42.6477C111.835 41.259 111.577 39.9394 111.05 38.7189C110.522 37.4855 109.81 36.4116 108.896 35.493C107.97 34.5745 106.902 33.8456 105.658 33.2979C104.435 32.7545 103.122 32.4828 101.724 32.4828ZM108.411 49.4703V42.5917C108.411 40.7372 107.759 39.1804 106.481 37.865C105.203 36.5798 103.624 35.92 101.78 35.92C99.8752 35.92 98.2408 36.5798 96.9325 37.865C95.5941 39.1804 94.9378 40.7372 94.9378 42.5917C94.9378 44.5367 95.5941 46.1539 96.9325 47.4649C98.2408 48.8105 99.8752 49.4703 101.78 49.4703H108.411Z" data-figma-gradient-fill="{&#34;type&#34;:&#34;GRADIENT_DIAMOND&#34;,&#34;stops&#34;:[{&#34;color&#34;:{&#34;r&#34;:1.0,&#34;g&#34;:0.0,&#34;b&#34;:0.0,&#34;a&#34;:1.0},&#34;position&#34;:0.0},{&#34;color&#34;:{&#34;r&#34;:0.58823531866073608,&#34;g&#34;:0.10588235408067703,&#34;b&#34;:0.11764705926179886,&#34;a&#34;:1.0},&#34;position&#34;:1.0}],&#34;stopsVar&#34;:[],&#34;transform&#34;:{&#34;m00&#34;:21.599994659423828,&#34;m01&#34;:-4.8849062919616699,&#34;m02&#34;:92.449081420898438,&#34;m10&#34;:24.712766647338867,&#34;m11&#34;:56.354808807373047,&#34;m12&#34;:-14.369642257690430},&#34;opacity&#34;:1.0,&#34;blendMode&#34;:&#34;NORMAL&#34;,&#34;visible&#34;:true}"/>
<g clip-path="url(#paint13_diamond_6736_8859_clip_path)" data-figma-skip-parse="true"><g transform="matrix(0.0047916 0.00546472 -0.00108364 0.0124617 101.297 35.4241)"><rect x="0" y="0" width="1330.38" height="1358.07" fill="url(#paint13_diamond_6736_8859)" opacity="1" shape-rendering="crispEdges"/><rect x="0" y="0" width="1330.38" height="1358.07" transform="scale(1 -1)" fill="url(#paint13_diamond_6736_8859)" opacity="1" shape-rendering="crispEdges"/><rect x="0" y="0" width="1330.38" height="1358.07" transform="scale(-1 1)" fill="url(#paint13_diamond_6736_8859)" opacity="1" shape-rendering="crispEdges"/><rect x="0" y="0" width="1330.38" height="1358.07" transform="scale(-1)" fill="url(#paint13_diamond_6736_8859)" opacity="1" shape-rendering="crispEdges"/></g></g><path fill-rule="evenodd" clip-rule="evenodd" d="M106.189 47.2321V42.6477C106.189 41.4143 105.747 40.3663 104.877 39.5081C104.006 38.6499 102.951 38.2186 101.724 38.2186C100.428 38.2186 99.3431 38.6499 98.5023 39.5081C97.6487 40.3706 97.2197 41.4186 97.2197 42.6477C97.2197 43.9243 97.6487 45.0154 98.5023 45.9038C99.3431 46.7922 100.428 47.2364 101.724 47.2364H106.189V47.2321Z" data-figma-gradient-fill="{&#34;type&#34;:&#34;GRADIENT_DIAMOND&#34;,&#34;stops&#34;:[{&#34;color&#34;:{&#34;r&#34;:1.0,&#34;g&#34;:0.0,&#34;b&#34;:0.0,&#34;a&#34;:1.0},&#34;position&#34;:0.0},{&#34;color&#34;:{&#34;r&#34;:0.58823531866073608,&#34;g&#34;:0.10588235408067703,&#34;b&#34;:0.11764705926179886,&#34;a&#34;:1.0},&#34;position&#34;:1.0}],&#34;stopsVar&#34;:[],&#34;transform&#34;:{&#34;m00&#34;:9.5831975936889648,&#34;m01&#34;:-2.1672701835632324,&#34;m02&#34;:97.588592529296875,&#34;m10&#34;:10.929438591003418,&#34;m11&#34;:24.923410415649414,&#34;m12&#34;:17.497716903686523},&#34;opacity&#34;:1.0,&#34;blendMode&#34;:&#34;NORMAL&#34;,&#34;visible&#34;:true}"/>
<path fill-rule="evenodd" clip-rule="evenodd" d="M238.116 89C234.551 89 231.428 88.5687 229.326 87.7925C229.121 87.7148 228.983 87.5208 228.979 87.3008C228.979 87.0809 229.112 86.8825 229.314 86.8006C230.214 86.4469 231.205 86.214 232.162 85.9811C234.041 85.5369 235.821 85.1143 236.644 83.8852C236.19 83.6739 235.641 83.5229 234.989 83.3418C233.668 82.9795 232.02 82.5267 230.008 81.2545C228.885 80.5472 228.529 80.1289 228.185 79.7235C227.971 79.4734 227.765 79.2319 227.345 78.8912C226.804 78.447 225.307 78.2917 223.574 78.1106C219.611 77.6966 213.618 77.0712 209.2 72.2756C203.49 66.0999 203.953 58.0611 210.431 50.7727C213.781 47.0035 219.538 43.6612 225.839 41.824C227.177 41.4272 228.164 41.2159 229.592 41.0175C230.077 40.8709 230.665 40.7674 231.291 40.6596C232.814 40.3922 234.706 40.0644 235.13 39.0122C235.439 38.2488 234.997 37.0068 233.865 35.4154C221.914 33.8154 207.325 28.4936 199.076 22.719C198.879 22.581 198.802 22.3309 198.883 22.1023C198.96 21.891 199.162 21.753 199.381 21.753C199.398 21.753 199.411 21.753 199.428 21.7573C201.513 21.947 203.726 22.3395 206.068 22.7578C208.213 23.1416 210.431 23.5341 212.537 23.7583C217.95 24.3406 222.583 24.7114 226.701 24.8883C231.458 25.0953 235.958 25.1988 240.08 25.1988C246.129 25.1988 251.396 24.9745 255.75 24.526C256.969 21.1406 256.969 15.7411 254.103 11.5148C252.542 9.21612 249.513 6.47328 243.95 6.47328C242.843 6.47328 241.672 6.5854 240.458 6.80104C236.692 7.47812 236.666 7.9482 236.619 8.8021C236.576 9.57407 236.52 10.6264 235.083 12.0021C234.547 12.5153 234.152 12.7439 233.839 12.9336C233.337 13.2312 233.084 13.3778 232.531 14.7837C231.802 16.6382 230.57 17.5525 228.537 17.7422C228.301 17.7681 228.087 17.7767 227.894 17.7767C227.109 17.7767 226.56 17.5826 226.225 17.1859C225.818 16.7029 225.809 16.0517 225.903 15.2969C225.753 15.4048 225.595 15.5169 225.431 15.642C224.123 16.5994 222.334 17.9147 219.872 17.9277C219.13 18.6824 218.495 18.8074 217.933 18.9239C217.213 19.0662 216.535 19.2042 215.329 20.8516L214.677 21.6581C214.635 21.7142 214.557 21.7961 214.484 21.878L214.403 21.9643C214.3 22.0807 214.154 22.1411 214.008 22.1411C213.94 22.1411 213.867 22.1282 213.798 22.098C213.588 22.0074 213.459 21.7918 213.481 21.5675C213.584 20.3341 213.79 19.3638 214.339 18.6177C213.944 18.7169 213.751 18.8807 213.476 19.1136C213.086 19.4457 212.546 19.9072 211.31 20.3859C211.25 20.4074 211.181 20.4204 211.117 20.4204C210.971 20.4204 210.83 20.36 210.727 20.2479C210.577 20.084 210.547 19.8468 210.645 19.6527C211.628 17.7077 212.134 17.1686 214.493 16.7632C216.059 16.4915 218.56 16.3622 219.602 16.3147C221.772 15.9093 225.534 13.5762 225.92 12.6015C226.229 11.821 225.89 11.1352 225.659 10.8032C225.26 10.2166 224.616 9.81989 224.063 9.81989C223.729 9.81989 223.445 9.96652 223.222 10.2598C223.171 10.3288 223.124 10.3935 223.085 10.4452C223.107 10.6091 223.085 10.7816 223.059 10.9541C223.016 11.1956 223.008 11.3336 223.008 11.4069C223.004 11.5967 222.896 11.7692 222.733 11.8598C222.652 11.9029 222.562 11.9245 222.48 11.9245C222.382 11.9245 222.287 11.8986 222.201 11.8468C221.76 11.5751 221.657 11.4501 221.524 11.0231C221.506 10.967 221.485 10.8937 221.455 10.8075C220.962 11.1266 220.421 11.2862 219.834 11.2862C219.229 11.2862 218.568 11.1094 217.873 10.7644C216.591 10.1261 215.921 9.35412 215.891 8.47434C215.84 6.8571 217.976 5.61506 218.886 5.08892C218.989 5.02854 219.066 4.98541 219.113 4.95091C220.014 4.36871 220.533 4.0582 220.842 3.87707C220.97 3.79944 221.086 3.73044 221.142 3.69162L221.146 3.67437C221.202 3.53205 221.301 3.29055 221.605 2.82478C222.793 0.987595 224.222 0.961719 225.603 0.935843C226.693 0.91428 227.821 0.892717 229.121 0.0776276C229.193 0.0301885 229.292 0 229.391 0H232.093C232.179 0 232.261 0.0215632 232.338 0.060377C235.1 1.47924 238.631 1.50511 242.371 1.52668C246.875 1.55686 251.984 1.59136 256.6 4.17032C262.751 7.59888 265.878 14.512 265.449 23.6807L277.387 21.7702C277.413 21.7659 277.443 21.7659 277.469 21.7659C277.683 21.7659 277.876 21.891 277.962 22.0937C278.052 22.3222 277.979 22.5853 277.777 22.7276C275.208 24.5648 271.999 26.3416 268.748 27.726C268.413 27.864 267.916 28.0581 267.358 28.278C266.101 28.7696 264.205 29.5114 263.738 29.8133C263.304 30.0979 262.983 30.5853 262.537 31.2623C261.387 33.0133 259.457 35.9372 252.589 39.5987C252.297 39.7539 251.997 39.9178 251.692 40.086C249.921 41.052 247.913 42.1475 245.957 42.5097C245.61 42.5744 245.275 42.5744 244.949 42.5787C244.542 42.583 244.16 42.583 243.838 42.7124C242.972 43.0574 242.238 44.0752 241.835 44.9075C241.462 45.6752 241.445 46.6412 241.427 47.5771C241.419 47.9954 241.41 48.4223 241.372 48.8407L240.647 63.6546C240.857 63.6934 241.02 63.7193 241.14 63.7193C241.337 63.7193 241.415 63.6589 241.976 63.0595C242.333 62.6843 242.817 62.1667 243.585 61.4552C251.015 54.611 257.389 53.1749 261.426 53.1749C267.165 53.1749 271.982 56.1377 273.694 60.7306C275.264 64.9441 273.814 69.5241 269.82 72.9872C267.011 75.4281 263.613 76.6702 259.723 76.6702H259.718C255.257 76.6702 250.976 75.0831 247.849 73.9187C246.163 73.2934 244.709 72.7543 243.945 72.7543C243.774 72.7543 243.688 72.7845 243.654 72.8017L239.849 75.247L239.793 82.1731L246.399 82.5612C246.648 82.5742 246.854 82.7596 246.892 83.0054C246.931 83.2512 246.798 83.4928 246.562 83.5833C245.408 84.0448 243.945 84.2604 241.959 84.2604C241.47 84.2604 240.981 84.2475 240.518 84.2302C241.445 85.2221 243.066 85.6059 244.769 86.0156C245.7 86.2356 246.665 86.4642 247.557 86.8049C247.767 86.8825 247.909 87.0895 247.9 87.3138C247.892 87.538 247.746 87.7364 247.532 87.8054C245.112 88.5644 241.68 89 238.116 89ZM234.058 68.9505C232.372 68.9505 230.836 69.5629 229.953 70.5893C229.305 71.3354 229.013 72.2713 229.082 73.3753C231.874 73.1208 235.765 71.0767 236.507 69.4896C235.847 69.1446 234.98 68.9505 234.058 68.9505ZM234.109 66.2637C231.784 66.2637 227.684 66.8115 226.337 70.4901C226.105 71.1198 225.702 72.461 226.096 73.1855C226.277 72.6637 226.319 72.1764 226.362 71.6761C226.47 70.447 226.577 69.1791 228.837 67.8292C230.326 66.9495 232.205 66.5053 234.418 66.5053C236.198 66.5053 238.215 66.7899 240.441 67.3592C239.021 66.915 237.558 66.5699 236.087 66.3888C235.426 66.3026 234.757 66.2637 234.109 66.2637ZM229.73 48.7199C225.144 51.0746 220.85 53.6665 218.976 59.3075C217.963 62.3436 218.105 65.5953 219.379 68.4718C220.653 71.357 221.215 72.3446 224.17 73.0389C224.522 66.2465 228.43 62.943 236.1 62.943C236.117 62.943 236.138 62.943 236.151 62.943C236.155 62.9301 236.168 62.5894 236.168 62.5894C236.168 62.5161 236.186 62.4471 236.216 62.3867V46.3393H235.169C235.092 46.4256 234.98 46.486 234.856 46.5032L234.414 46.5679L229.73 48.7199ZM249.063 67.7818C249.295 68.1225 249.397 68.1786 249.891 68.4589L250.208 68.6357C252.31 69.8519 254.738 70.4945 257.235 70.4945L257.406 70.4901C259.002 70.4772 260.954 70.3564 261.872 69.5112C263.326 68.1786 263.832 66.3284 263.193 64.6853C262.584 63.1112 261.074 62.1667 259.165 62.1667C258.127 62.1667 256.999 62.4384 255.81 62.9689C254.043 63.7581 250.324 66.4966 249.063 67.7818ZM244.49 65.5004C244.833 65.2287 245.327 64.6939 245.88 64.0945C247.969 61.8303 251.465 58.0395 257.346 56.2886C258.47 55.9522 259.688 55.7754 260.872 55.7754C262.575 55.7754 264.098 56.1204 265.303 56.7673C264.119 56.0773 262.609 55.7064 260.898 55.7064C256.54 55.7064 251.315 58.0352 246.185 62.2659C245.807 62.5764 245.442 62.8352 245.091 63.0853C244.319 63.633 243.688 64.0816 243.259 64.8449L244.49 65.5004ZM213.515 51.7345C213.107 52.4072 212.76 53.1447 212.49 53.9555C211.211 57.8196 211.619 61.6837 212.97 64.6422C212.914 64.4999 212.863 64.3532 212.807 64.2023C211.353 60.1915 211.67 55.508 213.515 51.7345ZM243.015 35.4801C242.453 36.1572 242.114 36.6747 241.994 37.7831C243.649 37.3345 245.275 36.5669 246.674 35.8553C247.639 35.368 248.355 34.8418 249.016 34.3243L243.015 35.4801ZM260.031 31.5729C258.843 31.9696 258.809 32.0127 258.504 32.375C258.256 32.6769 257.874 33.134 256.982 33.9448C256.647 34.2596 256.617 34.2855 256.381 34.5011L256.205 34.6607C255.639 35.1912 254.957 35.6914 254.206 36.1572C256.72 34.8936 258.86 33.2591 260.031 31.5729ZM224.042 4.80428C223.887 4.80428 223.668 5.10186 223.501 6.5164C223.454 6.92179 223.428 7.12017 223.347 7.28405C223.3 7.37893 223.222 7.45656 223.128 7.50831C223.638 7.40481 224.102 7.28837 224.453 7.19349C224.436 7.1633 224.423 7.1288 224.411 7.0943C224.346 6.88298 224.419 6.65009 224.595 6.5164C224.595 6.5164 225.256 6.0032 225.359 5.92557L224.878 5.31749C224.363 4.83878 224.11 4.80428 224.042 4.80428Z" fill="url(#paint14_linear_6736_8859)"/>
<path fill-rule="evenodd" clip-rule="evenodd" d="M243.945 61.8433C241.269 64.3187 242.011 64.4826 240.093 64.0816L240.835 48.776C240.964 47.4347 240.754 45.9038 241.354 44.666C241.809 43.7216 242.633 42.6132 243.636 42.2121C244.34 41.9275 245.121 42.1173 245.859 41.9793C248.059 41.5696 250.371 40.1723 252.336 39.1243C261.842 34.0569 261.627 30.5594 263.446 29.3605C264.154 28.899 267.371 27.713 268.533 27.23C271.695 25.8845 274.861 24.1508 277.464 22.2877L264.879 24.3017C265.492 14.8225 262.245 7.92232 256.338 4.62746C248.076 0.00862485 238.407 3.76494 232.093 0.526142H229.391C226.229 2.50564 223.926 0.202694 222.047 3.10941C221.078 4.61884 222.463 3.4113 219.396 5.3908C218.83 5.77031 213.88 8.18971 218.096 10.2857C219.482 10.9757 220.7 10.9412 221.699 9.89751L221.85 10.3719C222.154 11.1525 221.978 11.0878 222.472 11.3897C222.472 11.2732 222.489 11.1051 222.532 10.8592C222.69 9.91045 222.09 10.8808 222.802 9.93202C224.2 8.09483 227.306 10.5228 226.414 12.7956C225.92 14.042 221.875 16.4441 219.658 16.8409C218.122 16.9056 215.939 17.0479 214.583 17.2808C212.4 17.6603 212.035 18.0786 211.121 19.8856C213.974 18.7729 212.721 17.9061 215.973 17.9794C214.66 18.6004 214.188 19.5492 214.017 21.6063C214.103 21.5115 214.21 21.3993 214.274 21.3174L214.909 20.5325C217.221 17.367 218.019 19.2171 219.653 17.3886C223.085 17.4878 225.161 14.8484 226.611 14.2576C226.311 16.1508 225.912 17.4662 228.494 17.2074C230.429 17.022 231.428 16.1422 232.046 14.581C232.99 12.1703 233.303 12.9681 234.723 11.6096C237.94 8.53041 233.414 7.51693 240.372 6.27058C255.343 3.58812 259.066 17.6215 256.145 25.009C247.15 25.9664 235.812 25.8025 226.693 25.4058C221.94 25.2031 217.101 24.7718 212.494 24.2759C208.127 23.8101 203.413 22.6414 199.394 22.2748C207.535 27.9761 222.283 33.3583 234.169 34.9108C238.764 41.1642 232.252 40.7415 229.717 41.5307C228.305 41.7248 227.34 41.9275 225.993 42.3286C220.636 43.8898 214.527 46.969 210.838 51.1221C204.867 57.8368 203.825 65.6643 209.603 71.9176C215.96 78.8135 225.663 76.8125 227.696 78.4815C228.85 79.4216 228.559 79.7062 230.309 80.806C233.612 82.8933 235.945 82.7079 237.378 83.6825C236.246 86.2701 232.359 86.1795 229.524 87.2965C233.882 88.9094 242.573 88.8146 247.381 87.2965C244.452 86.1882 240.655 86.2658 239.527 83.648C241.904 83.7774 244.499 83.8421 246.382 83.0874L239.27 82.669L239.334 74.9537L243.422 72.3273C245.82 71.0896 259.461 81.2933 269.486 72.5861C282.23 61.5328 264.531 42.8806 243.945 61.8433ZM228.777 4.19189C227.615 4.81722 226.066 6.05495 224.917 6.93904L225.916 6.99079C227.122 5.50724 230.326 4.93366 231.368 5.50724C233.217 7.47812 232.608 8.15521 231.647 10.4927C230.982 12.084 231.132 12.0193 231.162 13.8393C231.205 16.6986 230.493 15.9136 229.918 16.1638C231.188 14.0765 230.648 13.2916 231.197 11.0706C232.93 4.14014 229.871 6.50778 225.916 6.99079C225.822 7.08998 225.83 7.20642 225.268 7.49537C225.161 7.56006 222.459 8.36653 220.666 8.3234C222.064 8.01289 221.506 7.99995 221.841 7.77569C219.16 7.51694 219.572 6.89592 217.466 8.34496L218.328 6.98648C220.91 6.53365 219.984 7.97839 222.879 7.04254C223.094 6.61128 222.901 2.7299 225.277 4.95523L225.796 5.61075C225.83 5.54606 225.925 5.76169 225.989 5.82638C228.151 3.51049 229.095 2.07869 232.702 2.79028C234.487 3.14392 234.367 3.10079 235.272 3.76925C232.295 3.73043 231.338 2.81615 228.777 4.19189ZM242.491 4.63178C246.481 3.3078 252.782 4.38164 256.076 6.41721C258.993 8.20265 262.198 10.9886 262.983 14.9735C258.024 6.7881 252.692 4.58003 242.491 4.63178ZM256.63 33.548C259.285 31.1373 257.265 31.9437 261.155 30.6327C259.392 34.8763 251.173 39.1459 244.906 39.1157C248.381 38.4256 253.297 36.6531 255.853 34.2726C256.261 33.8931 256.218 33.9362 256.63 33.548ZM242.727 34.9928L251.216 33.3583C249.882 34.1647 248.883 35.3292 246.914 36.3297C245.215 37.1922 243.323 38.0634 241.419 38.4731C241.47 36.6057 241.934 35.9416 242.727 34.9928ZM211.988 53.7959C214.309 46.7361 222.266 45.2396 223.257 44.2046L224.32 44.2995L224.286 44.321L224.269 44.334C222.772 45.1102 221.245 45.6148 219.773 46.3048C218.126 47.2191 216.479 48.3577 215.595 49.4358C212.49 53.2784 211.555 59.1996 213.309 64.0298C214.767 68.0837 215.866 67.6438 216.878 69.7872C212.558 67.6007 209.762 60.5279 211.988 53.7959ZM218.894 68.6875C217.581 65.716 217.397 62.3694 218.474 59.1393C220.357 53.4811 224.539 50.79 229.511 48.2369L234.264 46.0547C234.264 46.0547 234.5 46.0202 234.783 45.9771V45.8046H236.747V62.6066H236.696C236.683 62.8956 236.683 63.1845 236.662 63.4735C229.185 63.3225 224.818 66.0999 224.676 73.6901C220.936 72.9397 220.271 71.8098 218.894 68.6875ZM228.606 73.9273C227.821 68.5581 234.414 67.3764 237.133 69.2481C236.769 71.3052 231.681 73.8885 228.606 73.9273ZM243.452 68.8082C239.253 67.3764 233.114 65.9144 229.112 68.2821C225.886 70.2098 227.563 71.6934 226.294 74.0481C224.972 73.4572 225.393 71.5424 225.843 70.3047C227.336 66.2163 232.093 65.3667 236.16 65.8584C241.324 66.4966 246.249 69.0454 250.079 71.0465C248.192 70.6238 245.614 69.537 243.452 68.8082ZM262.232 69.9079C261.168 70.8869 259.092 71.012 257.415 71.0292C254.759 71.0594 252.143 70.3694 249.951 69.1058C248.917 68.5149 248.96 68.6098 248.402 67.7387C249.38 66.5225 253.64 63.37 255.6 62.4988C262.867 59.2385 266.35 66.1257 262.232 69.9079ZM268.49 62.7921C268.263 64.2023 267.718 65.591 266.848 66.6217L266.406 67.053C267.491 63.7797 269.091 60.8428 266.264 58.1085C264.317 56.2239 260.593 55.8703 257.496 56.7932C249.599 59.1393 246.052 65.3193 244.512 66.1128L242.56 65.0691C243.208 63.4562 244.486 62.9689 245.841 61.8519C259.113 50.9107 269.683 54.9991 268.49 62.7921Z" fill="url(#paint15_linear_6736_8859)"/>
<path opacity="0.3" fill-rule="evenodd" clip-rule="evenodd" d="M226.68 25.4144C221.927 25.2117 217.088 24.7804 212.481 24.2845C208.114 23.8187 203.4 22.65 199.381 22.2834C202.444 24.4311 206.446 26.5314 210.881 28.3988C211.525 28.3815 212.172 28.3729 212.82 28.3729C223.557 28.3729 233.831 30.719 243.152 34.9108L251.221 33.354C249.887 34.1604 248.887 35.3249 246.918 36.3254C246.79 36.3901 246.648 36.4548 246.515 36.5238C247.403 36.9766 248.274 37.4467 249.145 37.934C251.684 37.0327 254.241 35.7734 255.858 34.2683C256.27 33.8931 256.227 33.9362 256.634 33.548C259.289 31.1373 257.269 31.9437 261.16 30.6327C259.847 33.7982 254.935 36.9766 249.925 38.3739C250.53 38.7232 251.131 39.0769 251.727 39.4434C251.95 39.3313 252.164 39.2192 252.345 39.1243C261.85 34.0569 261.636 30.5594 263.455 29.3605C264.162 28.899 267.38 27.713 268.542 27.23C271.704 25.8845 274.869 24.1508 277.473 22.2877L264.887 24.3017C265.501 14.8226 262.254 7.92232 256.347 4.62746C248.085 0.00862467 238.416 3.76494 232.102 0.526142H229.4C226.238 2.50565 223.935 0.202694 222.056 3.10941C221.086 4.61884 222.472 3.4113 219.405 5.3908C218.839 5.77032 213.888 8.18971 218.105 10.2857C219.491 10.9757 220.709 10.9412 221.708 9.89752L221.858 10.3719C222.163 11.1525 221.987 11.0878 222.48 11.3897C222.48 11.2732 222.498 11.1051 222.54 10.8592C222.699 9.91045 222.099 10.8808 222.811 9.93202C224.209 8.09483 227.315 10.5228 226.423 12.7956C225.929 14.042 221.884 16.4441 219.666 16.8409C218.131 16.9056 215.947 17.0479 214.592 17.2808C212.408 17.6603 212.044 18.0786 211.13 19.8856C213.983 18.7729 212.73 17.9061 215.982 17.9794C214.669 18.6004 214.197 19.5492 214.026 21.6063C214.111 21.5115 214.219 21.3993 214.283 21.3174L214.918 20.5325C217.23 17.367 218.028 19.2171 219.662 17.3886C223.094 17.4878 225.17 14.8484 226.62 14.2576C226.32 16.1508 225.921 17.4662 228.503 17.2074C230.438 17.022 231.437 16.1422 232.055 14.581C232.998 12.1703 233.312 12.9681 234.731 11.6096C237.949 8.53041 233.423 7.51694 240.381 6.27058C255.352 3.58812 259.075 17.6215 256.154 25.009C247.141 25.9707 235.804 25.8112 226.68 25.4144ZM228.778 4.19189C227.615 4.81722 226.066 6.05495 224.917 6.93904L225.916 6.99079C227.122 5.50724 230.326 4.93366 231.368 5.50724C233.217 7.47812 232.608 8.15521 231.647 10.4927C230.982 12.084 231.132 12.0193 231.163 13.8393C231.205 16.6986 230.493 15.9136 229.919 16.1638C231.188 14.0765 230.648 13.2916 231.197 11.0706C232.93 4.14014 229.871 6.50778 225.916 6.99079C225.822 7.08998 225.831 7.20643 225.269 7.49537C225.161 7.56006 222.459 8.36653 220.666 8.3234C222.064 8.01289 221.507 7.99995 221.841 7.77569C219.16 7.51694 219.572 6.89592 217.466 8.34496L218.328 6.98648C220.91 6.53365 219.984 7.97839 222.879 7.04254C223.094 6.61128 222.901 2.7299 225.277 4.95523L225.796 5.61075C225.831 5.54606 225.925 5.76169 225.989 5.82638C228.151 3.51049 229.095 2.07869 232.702 2.79028C234.487 3.14392 234.367 3.10079 235.272 3.76925C232.295 3.73044 231.338 2.81616 228.778 4.19189ZM242.491 4.63178C246.481 3.3078 252.782 4.38164 256.077 6.41721C258.993 8.20265 262.198 10.9886 262.983 14.9735C258.024 6.7881 252.692 4.58003 242.491 4.63178Z" fill="url(#paint16_linear_6736_8859)"/>
<path fill-rule="evenodd" clip-rule="evenodd" d="M170.713 42.2898C170.537 42.2078 170.095 41.9189 169.606 41.6903C167.341 40.6682 165.227 39.8919 162.653 40.3275C161.28 40.5604 161.061 40.845 160.118 41.1987C160.577 39.9868 164.523 39.6159 166.02 39.7669C166.839 39.8488 169.954 40.4483 170.464 40.9356C170.795 41.2375 171.035 41.7981 170.713 42.2898Z" fill="url(#paint17_radial_6736_8859)"/>
<path d="M237.318 83.6868C235.628 83.0313 232.307 83.6868 227.027 78.6108C226.422 78.0286 225.822 78.641 224.985 78.0761C224.56 77.7914 223.921 77.951 223.325 77.8863C219.353 77.468 213.347 76.834 209.011 72.0815C203.477 66.0309 203.962 58.1129 210.306 50.8935C212.511 48.3835 215.853 45.9124 219.709 44.1615C222.639 42.8332 228.237 40.8882 232.08 40.6165C232.269 40.6035 231.595 40.0213 231.595 40.0213C223.66 31.5685 200.68 27.9373 191.2 25.6904L190.016 25.4015C189.484 25.2721 188.965 25.147 188.463 25.022L188.035 24.9141C176.907 22.0937 163.065 18.5832 160.714 13.1147C159.856 11.1051 161.379 8.0172 162.601 5.53312C162.897 4.93366 163.176 4.36871 163.408 3.8555L162.507 3.28192C162.022 3.85119 161.469 4.45927 160.903 5.08461C159.637 6.4819 158.329 7.92664 157.428 9.26356C154.975 12.925 154.027 17.7206 154.751 22.7578C154.812 23.2063 154.889 23.5384 154.953 23.8058L154.97 23.8964C155.047 24.3017 155.086 24.4872 155.005 25.1384C154.893 26.2856 154.897 27.4155 155.022 28.3987C155.648 33.9491 158.23 37.7011 161.289 41.6946L164.262 45.0024C164.515 45.2914 164.763 45.5286 165.008 45.7571L165.252 45.9857C165.471 46.1798 165.69 46.3695 165.892 46.5722C166.316 47.0164 166.728 47.4046 167.187 47.8358C167.543 48.1636 167.895 48.5043 168.264 48.8622L168.59 49.2073C170.323 50.9927 171.695 52.3986 173.141 54.5204C173.832 55.5425 174.557 56.6767 175.187 58.2422C177.203 63.3096 174.818 67.1867 167.899 70.102C167.8 70.1408 167.706 70.1796 167.569 70.2141C167.247 70.3219 166.908 70.447 166.574 70.667L162.529 73.4615L167.419 73.1252C169.696 72.9785 173.493 71.1284 175.106 69.9252C176.71 68.7263 178.928 66.7252 179.648 63.2363C180.644 58.4104 177.975 53.9813 175.882 51.0703C175.282 50.2337 174.677 49.4833 173.836 48.5474C173.819 48.5259 173.806 48.5086 173.797 48.4914C173.767 48.4482 173.737 48.4051 173.699 48.3577L173.604 48.2498L171.065 45.5889C170.915 45.4466 170.739 45.2871 170.55 45.1189C170.409 44.9938 170.263 44.8601 170.095 44.7049C169.482 44.1787 169.062 43.7949 168.796 43.5102L167.196 42.0051C167.003 41.824 166.659 41.4919 166.291 41.1167C169.418 43.5404 172.382 45.2353 175.741 47.1587L177.293 48.0515C178.126 48.5172 178.971 48.983 179.811 49.4315C182.299 50.7727 184.65 52.0407 186.688 53.921C186.941 54.1625 187.254 54.4773 187.524 54.7662C187.876 55.1414 188.12 55.383 188.27 55.5037C188.777 55.9738 190.128 57.9619 190.561 58.8029C192.144 61.9597 192.603 64.9743 192.054 68.5753C191.488 72.2152 189.875 75.1219 188.622 76.9117C186.855 79.4259 184.813 80.8664 182.008 81.5779C180.746 81.8971 179.378 82.0566 177.941 82.0566C176.736 82.0566 175.406 81.9402 173.977 81.7073C173.772 81.6771 173.527 81.6254 173.274 81.5693L172.935 81.5003C172.365 81.3623 171.768 81.2286 171.288 81.1941L170.855 81.1639L166.119 80.1203L170.164 83.5229L170.546 83.7343C171.914 84.4804 175.753 85.0798 176.277 85.1445C177.216 85.2696 178.186 85.3343 179.151 85.3343C180.408 85.3343 181.604 85.2264 182.707 85.0151C187.382 84.0491 189.763 81.6771 191.479 79.4777C195.198 74.6993 202.31 62.1495 198.771 53.8994C197.798 51.6482 196.828 50.4277 195.597 48.8709L195.37 48.5992C195.245 48.431 195.091 48.2973 194.979 48.1981C194.958 48.1765 194.941 48.1593 194.906 48.1334L194.898 48.1162L193.628 46.818L193.577 46.7835C193.508 46.7189 193.431 46.6542 193.358 46.5895L193.212 46.4644C193.058 46.335 192.899 46.2057 192.723 46.0418C190.63 44.1615 187.018 42.2165 183.492 40.3146L182.805 39.9437C181.12 39.0251 179.524 38.1583 178.263 37.3604L177.302 36.7567C175.071 35.355 173.476 34.3243 171.665 32.871C172.438 33.1038 173.227 33.3281 174.038 33.5394C178.675 34.7771 182.196 35.9373 185.461 37.2914C189.429 38.9647 192.607 40.6855 195.177 42.5615C195.417 42.734 195.64 42.9151 195.863 43.0962C195.975 43.1868 196.086 43.2774 196.185 43.355C196.279 43.4369 196.374 43.5102 196.468 43.5879C196.558 43.6612 196.648 43.7302 196.747 43.8164C198.896 45.5243 200.882 48.0083 201.92 50.294C204.241 55.3873 203.747 61.2568 200.457 67.7473C200.294 68.0794 200.127 68.3942 199.955 68.7047L199.719 69.1446C199.518 69.5069 199.312 69.8907 199.132 70.2573C198.578 71.3182 197.343 73.0432 196.524 74.1818L196.163 74.682L195.344 75.7429L195.13 76.0103C195.009 76.1613 194.894 76.3122 194.752 76.4804L194.705 76.5408C194.357 76.9936 194.031 77.4206 193.658 77.813C193.512 77.9769 193.384 78.1408 193.264 78.296C193.118 78.4728 192.98 78.6367 192.839 78.7661L192.753 78.8653L192.744 78.8869L191.239 80.5214L191.136 80.6162C190.84 80.8922 190.728 81.1424 190.664 81.3408L190.111 82.7424L191.835 87.2965H192.208C201.216 87.2965 205.463 85.7569 209.959 84.131C213.42 82.8761 216.998 81.5823 223.085 80.8189C223.544 80.7629 223.917 80.6939 224.239 80.6335C224.239 80.6335 225.152 80.3488 225.457 80.4049C228.357 80.9311 231.128 84.6011 236.606 83.9413C236.606 83.9413 236.481 84.0922 236.606 83.924L237.318 83.6868ZM159.534 26.5098C159.775 26.7254 160.023 26.9325 160.289 27.1438C160.011 26.9842 159.753 26.7815 159.534 26.5098Z" fill="url(#paint18_radial_6736_8859)"/>
<path fill-rule="evenodd" clip-rule="evenodd" d="M160.637 70.6195C160.911 70.529 161.602 70.4341 161.958 70.3564C163.09 70.033 164.36 69.3947 165.342 68.791C166.11 68.3252 167.487 67.2557 168.101 66.6691L168.946 65.8023C169.495 65.246 169.958 64.7328 170.494 64.1161L171.579 62.7231C171.717 62.5506 171.824 62.4427 171.961 62.2573C172.635 61.218 173.57 59.9975 174.291 58.8633C174.428 58.6778 174.475 58.5226 174.659 58.3673C174.291 59.6223 171.734 63.495 170.923 64.4869L169.774 65.8023C169.576 65.9877 169.512 66.0654 169.357 66.2379C168.53 67.1522 167.028 68.4201 165.711 69.1662C164.557 69.8303 162.245 70.7748 160.637 70.6195Z" fill="url(#paint19_radial_6736_8859)"/>
<path fill-rule="evenodd" clip-rule="evenodd" d="M168.311 58.432C167.745 58.5269 167.865 58.8978 167.041 58.8331C165.523 58.7123 165.664 58.7382 164.378 58.2293C163.979 58.0568 163.61 57.9188 163.198 57.7808C161.898 57.3797 161.208 58.3673 160.701 58.3242C160.594 58.3069 159.813 57.8929 159.569 57.811C159.033 57.6255 158.681 57.673 158.158 57.8282C156.536 58.3242 156.626 58.7425 154.314 58.8331C153.624 58.8633 153.641 58.4622 153.134 58.4147C152.585 58.3846 152.247 58.8331 152.615 59.2686C152.89 59.6093 153.503 59.4239 153.902 59.2988C154.207 60.0579 155.125 60.942 155.785 61.4034C155.893 61.481 156.06 61.5587 156.202 61.6535C156.339 61.7614 156.386 61.8088 156.536 61.9166C157.733 62.8481 158.955 62.9861 160.749 62.9215C162.267 62.874 164.009 62.8136 165.055 62.0072L166.128 61.0929C166.265 60.9549 166.359 60.8945 166.479 60.7694C166.908 60.3511 167.23 59.8854 167.599 59.2988C168.058 59.411 168.594 59.6395 168.899 59.2212C169.216 58.7727 168.864 58.3242 168.311 58.432ZM161.478 60.7867C161.435 60.7091 161.465 60.7393 161.401 60.6789L161.388 61.2999C160.942 60.8643 161.268 60.584 160.684 60.5236C160.53 60.7996 160.809 60.9247 160.667 61.4681C160.47 61.218 160.577 60.9247 160.191 60.722L160.114 61.1403L160.006 60.584C159.852 60.7393 159.607 61.08 159.406 61.08C159.359 60.7694 159.56 60.2261 159.715 59.9975C159.972 59.5792 160.418 60.0579 160.663 60.1657C161.276 60.4287 161.122 59.6999 161.735 60.0579C162.057 60.2304 162.057 60.7565 162.074 61.2654C161.585 61.218 161.649 61.0196 161.478 60.7867Z" fill="url(#paint20_radial_6736_8859)"/>
<path d="M208.62 72.4481C202.598 65.867 203.687 57.6083 209.907 50.5355C212.361 47.7453 215.835 45.4251 219.482 43.6741C212.356 36.0839 201.281 28.6359 191.076 26.2209C190.128 25.988 189.206 25.7724 188.335 25.5567L187.906 25.4489C176.658 22.5982 162.674 19.0533 160.221 13.339C159.041 10.5832 161.722 6.33527 162.915 3.64418C161.366 5.45549 159.161 7.67219 157.874 9.57838C155.498 13.1277 154.58 17.8026 155.283 22.6974C155.348 23.146 155.425 23.4694 155.481 23.7195C155.575 24.1982 155.635 24.4311 155.541 25.2074C155.433 26.2899 155.433 27.3767 155.558 28.3513C156.171 33.7723 158.715 37.4596 161.718 41.3755L161.748 41.4057L164.673 44.6574C164.982 45.0154 165.304 45.2914 165.608 45.5889C165.84 45.7873 166.067 45.99 166.282 46.21C166.711 46.6585 167.136 47.0596 167.552 47.4477C167.921 47.7884 168.289 48.1463 168.654 48.5L168.976 48.8407C170.739 50.652 172.129 52.0924 173.587 54.2315C174.338 55.3485 175.058 56.4913 175.685 58.0568C177.829 63.4476 175.35 67.5662 168.101 70.6195C167.981 70.6627 167.856 70.7101 167.732 70.7446C167.457 70.8352 167.148 70.943 166.874 71.1284L164.455 72.8017L167.38 72.599C169.512 72.4567 173.248 70.6454 174.78 69.4982C176.311 68.3511 178.426 66.4621 179.116 63.1328C180.064 58.5355 177.478 54.2272 175.44 51.3938C174.874 50.6046 174.278 49.8585 173.45 48.9312C173.403 48.8838 173.373 48.8407 173.343 48.7932C173.313 48.7458 173.265 48.7027 173.222 48.638L173.192 48.6078L170.696 45.99C170.434 45.7399 170.1 45.4466 169.744 45.1232C169.237 44.6876 168.731 44.2391 168.427 43.9156L166.831 42.4148C166.325 41.9491 164.871 40.4785 164.472 39.9696L162.769 37.9556C161.821 36.8257 161.006 35.6957 160.319 34.5788C160.349 34.609 160.367 34.6391 160.397 34.6693C160.487 34.7944 160.594 34.9195 160.718 35.0747C160.856 35.2904 162.022 36.5928 162.571 37.0887C162.756 37.3389 163.185 37.7701 164.257 38.7448L165.102 39.4736C168.843 42.6175 172.257 44.5539 176.208 46.8137L177.559 47.59C178.387 48.0558 179.228 48.5215 180.039 48.9528C182.565 50.3156 184.955 51.6008 187.056 53.5371C187.318 53.783 187.64 54.1107 187.914 54.404C188.206 54.7145 188.463 54.9776 188.635 55.1156C189.236 55.6719 190.612 57.7333 191.041 58.57C192.68 61.839 193.156 64.9527 192.59 68.6702C192.007 72.4006 190.351 75.3893 189.064 77.2351C187.224 79.8529 185.083 81.3709 182.141 82.1127C180.854 82.4362 179.447 82.6087 177.941 82.6087C176.684 82.6087 175.32 82.4836 173.896 82.2507C173.591 82.2033 173.192 82.1127 172.811 82.0351C172.227 81.8971 171.674 81.772 171.245 81.7418L170.803 83.2599C171.966 83.8938 175.462 84.4976 176.35 84.6097C177.268 84.7348 178.203 84.7952 179.155 84.7952C180.395 84.7952 181.557 84.6874 182.6 84.4847C187.104 83.5531 189.399 81.2631 191.054 79.1413C194.688 74.4793 197.703 66.1948 194.259 58.156C193.324 55.9867 192.418 54.8396 191.162 53.2611L190.917 52.9679C190.827 52.8428 190.703 52.735 190.582 52.6272C190.535 52.5797 190.492 52.5496 190.458 52.5021L189.266 51.2816L189.218 51.2514C189.111 51.1436 188.991 51.0531 188.867 50.9409C188.699 50.7986 188.532 50.6649 188.343 50.4924C186.293 48.6509 182.69 46.7145 179.211 44.8429C177.25 43.7733 175.397 42.7814 173.956 41.8671L172.991 41.2634C170.602 39.7626 168.731 38.568 166.389 36.5842C166.329 36.5238 166.175 36.3987 165.99 36.2305C165.24 35.5319 164.883 35.2386 164.69 35.0833C164.583 34.9583 164.416 34.7901 164.137 34.5098C163.678 34.0311 162.975 33.3022 162.653 32.8192C162.516 32.6165 162.391 32.526 162.284 32.4354L162.237 32.3879C162.207 32.3578 162.19 32.3276 162.172 32.2974C162.112 32.2198 162.035 32.1119 161.898 32.0041C161.868 31.9265 161.804 31.8489 161.743 31.7411C161.087 30.7621 159.23 27.9934 158.175 24.2888C158.325 24.4742 158.466 24.6468 158.591 24.8149C158.681 24.9228 158.801 25.0478 158.912 25.1729C158.977 25.2333 159.037 25.2807 159.097 25.3583C159.603 25.8845 160.092 26.333 160.705 26.816C164.995 30.1454 169.19 31.7109 174.17 33.0262C178.919 34.2941 182.458 35.4715 185.658 36.8041C189.626 38.4774 192.843 40.2111 195.477 42.1302C195.846 42.3933 196.168 42.6736 196.519 42.9496C196.704 43.1049 196.884 43.2429 197.073 43.3981C199.295 45.162 201.328 47.7194 202.405 50.0741C204.794 55.3269 204.305 61.3473 200.933 67.9931C200.689 68.4891 200.427 68.9505 200.183 69.4163C199.985 69.7742 199.784 70.1451 199.599 70.516C198.973 71.7236 197.545 73.6772 196.704 74.8502L196.579 75.0227L195.756 76.0923C195.558 76.3424 195.374 76.5882 195.172 76.8168C194.803 77.2955 194.452 77.7613 194.057 78.1839C193.916 78.3392 193.795 78.4944 193.671 78.6454C193.517 78.8351 193.366 79.0162 193.195 79.1758L193.178 79.206L191.539 80.9871C191.522 81.0044 191.509 81.0216 191.492 81.0216C191.295 81.2071 191.217 81.3623 191.153 81.5478L190.677 82.7553L192.195 86.7661C207.942 86.7661 208.835 82.0739 223.003 80.2928C223.509 80.2324 223.904 80.1548 224.243 80.0901L224.904 79.965V78.6324C220.919 78.0847 213.738 78.0545 208.62 72.4481Z" fill="url(#paint21_radial_6736_8859)"/>
<path fill-rule="evenodd" clip-rule="evenodd" d="M157.48 39.7841C157.711 39.5987 157.771 39.7065 157.861 39.6461C157.634 39.5038 157.385 39.1027 157.188 38.8698C157.068 38.7318 157.004 38.6068 156.896 38.4515C156.789 38.3308 156.652 38.2229 156.527 38.0936C155.777 37.3173 155.193 36.761 154.061 36.2823C153.143 35.8941 151.547 35.6311 150.599 35.8769C150.522 35.8941 150.522 35.9071 150.462 35.9243L150.368 35.9717C149.312 35.9588 147.579 37.1318 146.906 37.4898C146.97 37.5502 146.919 37.507 146.983 37.6149C147.12 37.8477 147.18 37.8607 147.245 38.0806L147.258 38.0936C147.258 38.1108 147.228 38.1712 147.215 38.1884C147.571 38.9604 147.858 38.9604 147.584 39.5038C146.846 40.9442 144.135 40.2801 143.354 40.2025C144.118 40.927 145.851 40.9442 147.06 40.5432C147.566 40.3879 147.965 40.0774 148.068 40.2025C148.193 40.3103 148.008 40.4785 147.931 40.5733C147.103 41.4402 145.447 41.5523 144.298 41.5351C144.847 42.0784 146.086 41.8585 146.794 41.6299C147.819 41.272 148.141 40.9184 148.755 40.6078C148.54 41.1642 148.034 41.5997 147.592 41.8801C147.288 42.0828 146.751 42.3458 146.365 42.4666C146.288 42.4838 146.215 42.4968 146.151 42.5442C146.121 42.5442 146.104 42.5615 146.086 42.5615L145.949 42.6391C147.403 42.6995 148.369 41.8628 149.244 40.9528C149.291 40.9054 149.291 40.9054 149.334 40.845L149.411 40.7847C149.334 41.5911 149.029 41.8671 148.583 42.3501C148.124 42.8288 147.343 43.1092 147.176 43.3119C148.476 43.4499 149.505 41.9793 149.977 40.9572C149.87 41.5307 149.321 42.6132 148.999 43.1394C148.875 43.355 148.665 43.5577 148.647 43.7431C148.647 43.7431 149.274 43.2644 149.565 42.9669C150.192 42.2984 150.453 41.341 150.591 41.1383C150.531 42.2078 150.054 42.6865 149.84 43.2472C150.286 43.0315 151.251 41.4186 151.341 41.0607C151.341 41.9922 150.878 42.9065 150.771 43.7259C151.616 42.997 151.826 41.9749 152.105 41.2935L152.169 41.1512C152.229 42.113 151.998 42.872 151.998 43.7086C152.444 42.7943 152.641 42.2553 152.903 41.3065C152.98 41.0434 152.903 41.1512 153.057 41.0434C153.61 40.8882 153.593 41.755 153.64 42.2035C153.688 42.7598 153.748 43.3032 153.808 43.7992C153.868 43.1954 153.945 41.1512 154.194 40.8882C154.64 40.9485 154.576 41.6342 154.61 42.0181C154.64 42.4838 154.64 43.0876 154.7 43.5189C154.975 42.5399 155.056 41.8456 155.086 40.7933C155.807 40.7458 155.991 41.41 156.373 41.7852C156.279 41.1814 156.081 40.9485 155.914 40.4828C156.986 40.375 157.325 39.9566 157.767 39.9264C157.844 39.9092 157.857 39.9092 157.857 39.9264C157.857 39.9092 157.857 39.8963 157.921 39.8359C157.771 39.7065 157.741 39.6936 157.48 39.7841ZM157.694 39.8618C157.711 39.8445 157.728 39.8445 157.728 39.8316C157.724 39.8488 157.711 39.8488 157.694 39.8618Z" fill="url(#paint22_radial_6736_8859)"/>
<path fill-rule="evenodd" clip-rule="evenodd" d="M160.011 70.5591C158.569 70.4988 155.734 68.9807 154.541 68.0492L153.422 67.1823C152.791 66.6864 151.002 64.7974 150.449 64.0686C149.501 62.8136 149.162 62.4729 148.184 60.9549C146.498 58.3845 145.61 56.7544 144.843 53.5544C144.491 52.0493 144.169 50.721 143.86 49.1382C143.74 48.5043 143.08 44.8472 143.14 44.4892C143.616 46.5981 144.212 48.8407 144.671 50.9625C144.761 51.3204 144.885 51.6137 144.963 52.0148C145.19 53.1619 146.159 56.1635 146.631 57.1253C147.245 58.363 147.888 59.4325 148.592 60.5322C149.771 62.3263 150.14 62.8093 151.397 64.4222L152.028 65.1338C152.469 65.5823 152.654 65.923 153.345 66.5268C154.893 67.937 156.103 68.9117 158.063 69.826C158.689 70.1236 159.44 70.3133 160.011 70.5591Z" fill="url(#paint23_radial_6736_8859)"/>
<path d="M155.489 23.7066C155.584 24.1853 155.644 24.4182 155.55 25.1945C155.442 26.2769 155.442 27.3637 155.567 28.3384C155.974 31.961 157.248 34.8073 158.943 37.4639C159.946 37.2612 160.954 37.0844 161.967 36.9162C161.358 36.127 160.817 35.3421 160.332 34.5615C160.362 34.5917 160.38 34.6219 160.41 34.6521C160.5 34.7771 160.607 34.9022 160.731 35.0575C160.851 35.2472 161.761 36.2693 162.357 36.8515C163.618 36.6531 164.888 36.485 166.162 36.3426C166.115 36.2995 166.059 36.2564 166.008 36.2003C165.257 35.5017 164.901 35.2084 164.708 35.0532C164.601 34.9281 164.433 34.7599 164.154 34.4796C163.695 34.0009 162.992 33.272 162.67 32.789C162.533 32.5863 162.409 32.4958 162.301 32.4052L162.254 32.3578C162.224 32.3276 162.207 32.2974 162.19 32.2672C162.13 32.1896 162.053 32.0817 161.915 31.9739C161.885 31.8963 161.821 31.8187 161.761 31.7109C161.105 30.7319 159.247 27.9632 158.192 24.2586C158.342 24.4441 158.484 24.6166 158.608 24.7848C158.698 24.8926 158.818 25.0176 158.93 25.1427C158.994 25.2031 159.054 25.2505 159.114 25.3281C159.62 25.8543 160.109 26.3028 160.723 26.7858C165.012 30.1152 169.208 31.6807 174.188 32.996C178.623 34.182 181.999 35.2904 185.036 36.5151C195.486 37.8521 205.583 41.2332 214.72 46.3954C216.226 45.3776 226.675 40.3836 228.331 39.5901C221.206 31.9998 201.29 28.6273 191.085 26.2122C190.137 25.9794 189.214 25.7637 188.344 25.5481L187.915 25.4403C176.667 22.5896 162.683 19.0446 160.229 13.3304C159.05 10.5746 161.731 6.32665 162.923 3.63556C161.375 5.44687 159.17 7.66357 157.883 9.56975C155.507 13.1191 154.589 17.794 155.292 22.6888C155.352 23.1373 155.429 23.4608 155.489 23.7066Z" fill="url(#paint24_linear_6736_8859)"/>
<path fill-rule="evenodd" clip-rule="evenodd" d="M147.065 40.5432C147.571 40.3879 147.97 40.0774 148.073 40.2025C148.163 40.2801 148.086 40.3965 148.013 40.4871C150.775 39.5124 153.593 38.6844 156.45 38.0159C155.738 37.2828 155.155 36.748 154.065 36.2866C153.147 35.8984 151.552 35.6354 150.604 35.8812C150.526 35.8984 150.526 35.9114 150.466 35.9286L150.372 35.9761C149.317 35.9631 147.584 37.1362 146.91 37.4941C146.975 37.5545 146.923 37.5114 146.987 37.6192C147.125 37.8521 147.185 37.865 147.249 38.0849L147.262 38.0979C147.262 38.1151 147.232 38.1755 147.219 38.1928C147.575 38.9647 147.862 38.9647 147.588 39.5081C146.85 40.9485 144.139 40.2844 143.358 40.2068C144.122 40.9313 145.851 40.9485 147.065 40.5432Z" fill="url(#paint25_linear_6736_8859)"/>
<defs>
<clipPath id="paint6_diamond_6736_8859_clip_path"><path d="M24.0518 35.3119H19.6678C19.1488 35.3119 18.8871 35.6354 18.8871 36.2823V38.003C18.8871 38.6283 19.1488 38.9388 19.6678 38.9388H21.4137C23.2239 38.9388 24.7853 39.5642 26.0979 40.8062C27.3376 42.0267 27.9553 43.5491 27.9553 45.3647C27.9553 48.0816 26.8143 50.0223 24.5365 51.1954C23.7172 51.5921 22.8764 51.7948 22.0099 51.7948H5.31482C1.77161 51.1479 0 49.0046 0 45.3647V38.9388H5.61509V45.369C5.61509 45.99 5.93681 46.3048 6.58025 46.3048H21.5638C22.0829 46.1798 22.3445 45.8693 22.3445 45.369C22.3445 44.748 22.0357 44.4332 21.4137 44.4332H19.0716C17.1627 44.4332 15.7171 43.8682 14.7391 42.734C13.761 41.5997 13.272 40.0256 13.272 38.0073V36.2866C13.272 34.5184 13.9026 32.996 15.168 31.7281C16.4335 30.4559 17.9305 29.8219 19.6678 29.8219H24.0561V35.3119H24.0518ZM10.8913 55.7193C12.7744 55.7193 13.7181 56.6681 13.7181 58.5614C13.7181 60.5279 12.7744 61.5155 10.8913 61.5155C8.93095 61.5155 7.95292 60.5322 7.95292 58.5614C7.95721 56.6681 8.93524 55.7193 10.8913 55.7193ZM17.9949 55.7193C19.878 55.7193 20.8217 56.6681 20.8217 58.5614C20.8217 60.5279 19.878 61.5155 17.9949 61.5155C16.0388 61.5155 15.0565 60.5322 15.0565 58.5614C15.0565 56.6681 16.0345 55.7193 17.9949 55.7193Z"/></clipPath><clipPath id="paint7_diamond_6736_8859_clip_path"><path d="M40.7811 46.3005H46.542V51.7948H40.7811V52.7307C40.7811 54.4989 40.1505 56.0212 38.885 57.2891C37.6196 58.5614 36.1097 59.1953 34.3509 59.1953H30.9321V53.5156H34.3509C34.87 53.5156 35.1316 53.2525 35.1316 52.7307V33.7421H40.7811V46.3005Z"/></clipPath><clipPath id="paint8_diamond_6736_8859_clip_path"><path d="M65.5023 33.893H78.9245C80.9063 33.893 82.5192 34.6305 83.7589 36.0968C84.8013 37.3432 85.3203 38.913 85.3203 40.8062V46.3005H91.1199V51.7948H45.0581V46.3005H51.1193V35.7992H56.5843V46.3005H59.557V40.3189C59.557 36.0364 61.5388 33.893 65.5023 33.893ZM78.7744 39.3874H66.1329C65.4895 39.3874 65.1678 39.6979 65.1678 40.3232V46.3048H79.2205C79.7395 46.1798 80.0012 45.8693 80.0012 45.369V40.8062C80.1256 39.8617 79.7181 39.3874 78.7744 39.3874Z"/></clipPath><clipPath id="paint9_diamond_6736_8859_clip_path"><path d="M124.45 24.4742V45.218C124.45 47.0854 123.781 48.6552 122.442 49.9275C121.156 51.1738 119.641 51.7948 117.908 51.7948H113.224V46.3005H117.908C118.526 46.3005 118.839 45.99 118.839 45.3647V24.4742H124.45Z"/></clipPath><clipPath id="paint10_diamond_6736_8859_clip_path"><path d="M133.037 51.7948H127.422V24.4742H133.037V51.7948Z"/></clipPath><clipPath id="paint11_diamond_6736_8859_clip_path"><path fill-rule="evenodd" clip-rule="evenodd" d="M101.723 53.3344C100.261 53.3344 98.9179 53.0541 97.6138 52.4762C96.3484 51.907 95.2288 51.1393 94.2808 50.1862C93.3371 49.2504 92.5607 48.1118 91.9859 46.8051C91.4282 45.4854 91.1494 44.0881 91.1494 42.6434C91.1494 41.1987 91.4325 39.8143 91.9859 38.5291C92.5564 37.2353 93.3285 36.1011 94.2851 35.1567C95.2288 34.2079 96.3484 33.4402 97.6138 32.8666C98.9136 32.2887 100.261 32.0127 101.723 32.0127C103.182 32.0127 104.567 32.3017 105.846 32.8666C107.132 33.4316 108.235 34.1777 109.222 35.1567C110.165 36.1011 110.92 37.2353 111.474 38.5291C112.018 39.7841 112.297 41.1685 112.297 42.6434V52.8687C112.297 53.1274 112.091 53.3344 111.834 53.3344H101.723ZM101.779 36.3858C99.9989 36.3858 98.4761 36.9938 97.2535 38.1971C96.0052 39.4219 95.4004 40.858 95.4004 42.5916C95.4004 44.4245 96.0052 45.9081 97.2535 47.1329C98.4632 48.3792 99.986 49.0089 101.779 49.0089H107.947V42.5916C107.947 40.8752 107.36 39.4391 106.146 38.1928C104.958 36.9938 103.486 36.3858 101.779 36.3858Z"/></clipPath><clipPath id="paint12_diamond_6736_8859_clip_path"><path fill-rule="evenodd" clip-rule="evenodd" d="M101.724 32.4828C100.33 32.4828 99.0301 32.7545 97.8033 33.2979C96.5893 33.8413 95.5212 34.5745 94.6118 35.493C93.6853 36.4116 92.956 37.4855 92.4155 38.7189C91.8922 39.9394 91.6177 41.259 91.6177 42.6477C91.6177 44.0536 91.8879 45.3733 92.4155 46.6197C92.9603 47.8531 93.6853 48.9442 94.6118 49.8628C95.5255 50.7814 96.5936 51.5102 97.8033 52.0536C99.0301 52.6013 100.33 52.873 101.724 52.873H111.835V42.6477C111.835 41.259 111.577 39.9394 111.05 38.7189C110.522 37.4855 109.81 36.4116 108.896 35.493C107.97 34.5745 106.902 33.8456 105.658 33.2979C104.435 32.7545 103.122 32.4828 101.724 32.4828ZM108.411 49.4703V42.5917C108.411 40.7372 107.759 39.1804 106.481 37.865C105.203 36.5798 103.624 35.92 101.78 35.92C99.8752 35.92 98.2408 36.5798 96.9325 37.865C95.5941 39.1804 94.9378 40.7372 94.9378 42.5917C94.9378 44.5367 95.5941 46.1539 96.9325 47.4649C98.2408 48.8105 99.8752 49.4703 101.78 49.4703H108.411Z"/></clipPath><clipPath id="paint13_diamond_6736_8859_clip_path"><path fill-rule="evenodd" clip-rule="evenodd" d="M106.189 47.2321V42.6477C106.189 41.4143 105.747 40.3663 104.877 39.5081C104.006 38.6499 102.951 38.2186 101.724 38.2186C100.428 38.2186 99.3431 38.6499 98.5023 39.5081C97.6487 40.3706 97.2197 41.4186 97.2197 42.6477C97.2197 43.9243 97.6487 45.0154 98.5023 45.9038C99.3431 46.7922 100.428 47.2364 101.724 47.2364H106.189V47.2321Z"/></clipPath><radialGradient id="paint0_radial_6736_8859" cx="0" cy="0" r="1" gradientUnits="userSpaceOnUse" gradientTransform="translate(60.9402 72.4366) scale(12.5049 3.85553)">
<stop stop-color="#1B296A"/>
<stop offset="0.7711" stop-color="#012443"/>
</radialGradient>
<radialGradient id="paint1_radial_6736_8859" cx="0" cy="0" r="1" gradientUnits="userSpaceOnUse" gradientTransform="translate(66.9162 72.8243) scale(21.2641 7.10512)">
<stop stop-color="#1B296A"/>
<stop offset="0.7711" stop-color="#012443"/>
</radialGradient>
<radialGradient id="paint2_radial_6736_8859" cx="0" cy="0" r="1" gradientUnits="userSpaceOnUse" gradientTransform="translate(80.7015 69.8475) scale(5.80225 5.83341)">
<stop stop-color="#1B296A"/>
<stop offset="0.7711" stop-color="#012443"/>
</radialGradient>
<radialGradient id="paint3_radial_6736_8859" cx="0" cy="0" r="1" gradientUnits="userSpaceOnUse" gradientTransform="translate(92.0294 72.4757) scale(12.1015 3.82261)">
<stop stop-color="#1B296A"/>
<stop offset="0.7711" stop-color="#012443"/>
</radialGradient>
<radialGradient id="paint4_radial_6736_8859" cx="0" cy="0" r="1" gradientUnits="userSpaceOnUse" gradientTransform="translate(103.507 74.7544) scale(10.6825 5.62844)">
<stop stop-color="#1B296A"/>
<stop offset="0.7711" stop-color="#012443"/>
</radialGradient>
<radialGradient id="paint5_radial_6736_8859" cx="0" cy="0" r="1" gradientUnits="userSpaceOnUse" gradientTransform="translate(119.595 72.4776) scale(20.6518 3.82411)">
<stop stop-color="#1B296A"/>
<stop offset="0.7711" stop-color="#012443"/>
</radialGradient>
<linearGradient id="paint6_diamond_6736_8859" x1="0" y1="0" x2="500" y2="500" gradientUnits="userSpaceOnUse">
<stop stop-color="#FF0000"/>
<stop offset="1" stop-color="#961B1E"/>
</linearGradient>
<linearGradient id="paint7_diamond_6736_8859" x1="0" y1="0" x2="500" y2="500" gradientUnits="userSpaceOnUse">
<stop stop-color="#FF0000"/>
<stop offset="1" stop-color="#961B1E"/>
</linearGradient>
<linearGradient id="paint8_diamond_6736_8859" x1="0" y1="0" x2="500" y2="500" gradientUnits="userSpaceOnUse">
<stop stop-color="#FF0000"/>
<stop offset="1" stop-color="#961B1E"/>
</linearGradient>
<linearGradient id="paint9_diamond_6736_8859" x1="0" y1="0" x2="500" y2="500" gradientUnits="userSpaceOnUse">
<stop stop-color="#FF0000"/>
<stop offset="1" stop-color="#961B1E"/>
</linearGradient>
<linearGradient id="paint10_diamond_6736_8859" x1="0" y1="0" x2="500" y2="500" gradientUnits="userSpaceOnUse">
<stop stop-color="#FF0000"/>
<stop offset="1" stop-color="#961B1E"/>
</linearGradient>
<linearGradient id="paint11_diamond_6736_8859" x1="0" y1="0" x2="500" y2="500" gradientUnits="userSpaceOnUse">
<stop stop-color="#FF0000"/>
<stop offset="1" stop-color="#961B1E"/>
</linearGradient>
<linearGradient id="paint12_diamond_6736_8859" x1="0" y1="0" x2="500" y2="500" gradientUnits="userSpaceOnUse">
<stop stop-color="#FF0000"/>
<stop offset="1" stop-color="#961B1E"/>
</linearGradient>
<linearGradient id="paint13_diamond_6736_8859" x1="0" y1="0" x2="500" y2="500" gradientUnits="userSpaceOnUse">
<stop stop-color="#FF0000"/>
<stop offset="1" stop-color="#961B1E"/>
</linearGradient>
<linearGradient id="paint14_linear_6736_8859" x1="238.422" y1="0" x2="238.422" y2="89.0006" gradientUnits="userSpaceOnUse">
<stop offset="0.739583" stop-color="white"/>
<stop offset="1" stop-color="#262626"/>
</linearGradient>
<linearGradient id="paint15_linear_6736_8859" x1="238.421" y1="88.4701" x2="238.421" y2="0.53196" gradientUnits="userSpaceOnUse">
<stop stop-color="#1F4E77"/>
<stop offset="0.15625" stop-color="#012443"/>
</linearGradient>
<linearGradient id="paint16_linear_6736_8859" x1="238.422" y1="79.1368" x2="238.422" y2="-15.9178" gradientUnits="userSpaceOnUse">
<stop stop-color="white"/>
<stop offset="0.7711" stop-color="#012443"/>
</linearGradient>
<radialGradient id="paint17_radial_6736_8859" cx="0" cy="0" r="1" gradientUnits="userSpaceOnUse" gradientTransform="translate(165.492 41.0124) scale(3.90345 3.92442)">
<stop stop-color="#ED2224"/>
<stop offset="1" stop-color="#951A1D"/>
</radialGradient>
<radialGradient id="paint18_radial_6736_8859" cx="0" cy="0" r="1" gradientUnits="userSpaceOnUse" gradientTransform="translate(175.92 23.5559) scale(41.6417 41.8654)">
<stop stop-color="#FF0000"/>
<stop offset="1" stop-color="#951A1D"/>
</radialGradient>
<radialGradient id="paint19_radial_6736_8859" cx="0" cy="0" r="1" gradientUnits="userSpaceOnUse" gradientTransform="translate(167.644 64.5033) scale(6.57103 6.60632)">
<stop stop-color="#FF0000"/>
<stop offset="1" stop-color="#951A1D"/>
</radialGradient>
<radialGradient id="paint20_radial_6736_8859" cx="0" cy="0" r="1" gradientUnits="userSpaceOnUse" gradientTransform="translate(160.601 58.2792) scale(6.13962 6.1726)">
<stop stop-color="#FF0000"/>
<stop offset="1" stop-color="#951A1D"/>
</radialGradient>
<radialGradient id="paint21_radial_6736_8859" cx="0" cy="0" r="1" gradientUnits="userSpaceOnUse" gradientTransform="translate(173.008 23.6929) scale(38.2657 38.4712)">
<stop stop-color="#FF0000"/>
<stop offset="1" stop-color="#951A1D"/>
</radialGradient>
<radialGradient id="paint22_radial_6736_8859" cx="0" cy="0" r="1" gradientUnits="userSpaceOnUse" gradientTransform="translate(150.506 37.2166) scale(5.87122 5.90276)">
<stop stop-color="#FF0000"/>
<stop offset="1" stop-color="#951A1D"/>
</radialGradient>
<radialGradient id="paint23_radial_6736_8859" cx="0" cy="0" r="1" gradientUnits="userSpaceOnUse" gradientTransform="translate(151.572 57.5255) scale(10.9369 10.9957)">
<stop stop-color="#FF0000"/>
<stop offset="1" stop-color="#951A1D"/>
</radialGradient>
<linearGradient id="paint24_linear_6736_8859" x1="191.691" y1="6.68408" x2="191.691" y2="35.86" gradientUnits="userSpaceOnUse">
<stop stop-color="#039DBF"/>
<stop offset="0.7725" stop-color="#012443"/>
</linearGradient>
<linearGradient id="paint25_linear_6736_8859" x1="143.355" y1="38.2966" x2="156.45" y2="38.2966" gradientUnits="userSpaceOnUse">
<stop stop-color="white"/>
<stop offset="0.7711" stop-color="#0B113A"/>
</linearGradient>
</defs>
</svg>
